<svg width="318" height="297" viewBox="0 0 318 297" fill="none" xmlns="http://www.w3.org/2000/svg">

<g id="Layer_1">
<g id="Group">
<path id="Vector" d="M208.587 296.48H115.677C104.087 291.89 72.0469 262.01 67.6169 251.67C63.2369 242.96 58.8569 234.25 54.4769 225.54C58.4669 193.84 62.457 162.15 66.447 130.45C71.267 119.41 76.0869 108.37 80.9069 97.33C92.4969 92.74 104.087 88.15 115.677 83.55H208.587C220.177 88.14 231.767 92.73 243.357 97.33C248.177 108.37 252.997 119.41 257.817 130.45C263.317 167.67 268.827 204.89 274.327 242.11C252.417 260.24 230.497 278.36 208.587 296.49V296.48Z" fill="#1D4992"/>
<path id="Vector_2" d="M216.817 190.01C211.337 202.57 205.847 215.13 200.367 227.69C187.627 232.49 174.887 237.29 162.137 242.09H127.317C118.437 224.73 109.557 207.37 100.677 190.01C104.027 176.9 107.367 163.79 110.717 150.68C127.857 146.43 144.997 142.18 162.147 137.92C174.887 140.22 187.627 142.52 200.377 144.81C205.857 159.87 211.347 174.94 216.827 190L216.817 190.01Z" fill="#F9F125"/>
<path id="Vector_3" d="M162.137 211.21C172.989 211.21 181.787 202.829 181.787 192.49C181.787 182.151 172.989 173.77 162.137 173.77C151.285 173.77 142.487 182.151 142.487 192.49C142.487 202.829 151.285 211.21 162.137 211.21Z" fill="#D02B26" stroke="#D02B26" stroke-width="10.89" stroke-miterlimit="10"/>
<path id="Vector_4" d="M134.327 165.81C136.37 165.81 138.027 164.23 138.027 162.28C138.027 160.33 136.37 158.75 134.327 158.75C132.284 158.75 130.627 160.33 130.627 162.28C130.627 164.23 132.284 165.81 134.327 165.81Z" fill="#D02B26" stroke="#D02B26" stroke-width="10.89" stroke-miterlimit="10"/>
<path id="Vector_5" d="M155.097 157.99C157.218 157.99 158.937 156.356 158.937 154.34C158.937 152.324 157.218 150.69 155.097 150.69C152.976 150.69 151.257 152.324 151.257 154.34C151.257 156.356 152.976 157.99 155.097 157.99Z" fill="#D02B26" stroke="#D02B26" stroke-width="10.89" stroke-miterlimit="10"/>
<path id="Vector_6" d="M179.767 162.28C182.07 162.28 183.937 160.503 183.937 158.31C183.937 156.117 182.07 154.34 179.767 154.34C177.464 154.34 175.597 156.117 175.597 158.31C175.597 160.503 177.464 162.28 179.767 162.28Z" fill="#D02B26" stroke="#D02B26" stroke-width="10.89" stroke-miterlimit="10"/>
<path id="Vector_7" d="M196.187 173.77C198.496 173.77 200.367 171.988 200.367 169.79C200.367 167.592 198.496 165.81 196.187 165.81C193.878 165.81 192.007 167.592 192.007 169.79C192.007 171.988 193.878 173.77 196.187 173.77Z" fill="#D02B26" stroke="#D02B26" stroke-width="10.89" stroke-miterlimit="10"/>
<path id="Vector_8" d="M124.007 190.01C126.492 190.01 128.507 188.089 128.507 185.72C128.507 183.351 126.492 181.43 124.007 181.43C121.522 181.43 119.507 183.351 119.507 185.72C119.507 188.089 121.522 190.01 124.007 190.01Z" fill="#D02B26" stroke="#D02B26" stroke-width="10.89" stroke-miterlimit="10"/>
<path id="Vector_9" d="M127.317 211.92C129.139 211.92 130.617 210.51 130.617 208.77C130.617 207.03 129.139 205.62 127.317 205.62C125.494 205.62 124.017 207.03 124.017 208.77C124.017 210.51 125.494 211.92 127.317 211.92Z" fill="#D02B26" stroke="#D02B26" stroke-width="10.89" stroke-miterlimit="10"/>
<path id="Vector_10" d="M145.337 227.7C146.911 227.7 148.187 226.482 148.187 224.98C148.187 223.478 146.911 222.26 145.337 222.26C143.763 222.26 142.487 223.478 142.487 224.98C142.487 226.482 143.763 227.7 145.337 227.7Z" fill="#D02B26" stroke="#D02B26" stroke-width="10.89" stroke-miterlimit="10"/>
<path id="Vector_11" d="M172.157 228.81C174.057 228.81 175.597 227.341 175.597 225.53C175.597 223.718 174.057 222.25 172.157 222.25C170.257 222.25 168.717 223.718 168.717 225.53C168.717 227.341 170.257 228.81 172.157 228.81Z" fill="#D02B26" stroke="#D02B26" stroke-width="10.89" stroke-miterlimit="10"/>
<path id="Vector_12" d="M6.90693 42.21C12.5769 36.68 18.2469 31.14 23.9169 25.61C36.3669 20.54 48.8169 15.48 61.2669 10.41C94.0869 6.94 126.917 3.47 159.737 0C192.277 4.49 224.807 8.97 257.347 13.46C275.537 24.47 293.737 35.48 311.927 46.49C315.147 55.8 318.647 67.24 316.417 68.24C315.467 68.67 313.847 67.05 313.047 66.33C300.037 54.38 265.087 54.39 259.907 54.44C249.697 54.54 241.407 55.84 239.997 52.6C239.097 50.53 241.877 48.59 242.977 43.84C242.107 39.01 241.237 34.19 240.367 29.37C220.127 24.48 199.877 19.58 179.637 14.69C157.727 15.34 135.817 15.99 113.907 16.64L107.717 18.36C91.2069 20.16 78.6369 29.17 76.2569 40.38C75.7369 42.81 75.2669 47.38 77.7369 53.33C57.7469 55.02 41.8569 57.7 31.0369 59.84C14.8569 63.04 4.58693 66.09 1.12693 61.79C-2.34307 57.48 2.94693 48.15 6.90693 42.22V42.21Z" fill="#1D4992"/>
<path id="Vector_13" d="M84.4569 77.75C70.7669 83.91 57.0669 90.06 43.3769 96.22C28.9369 93.77 14.4969 91.32 0.0568848 88.87C3.74688 85.07 17.3369 71.98 39.9869 68.94C62.8669 65.86 79.8669 75.07 84.4569 77.75Z" fill="#D02B26"/>
<path id="Vector_14" d="M1.13693 61.79C0.766932 70.7 0.406926 79.61 0.0369263 88.52C5.66693 84.9 11.3069 81.28 16.9369 77.66C27.4069 74.4 37.8869 71.14 48.3569 67.87C60.3969 71.16 72.4369 74.45 84.4769 77.74C83.5969 71.03 82.7269 64.31 81.8469 57.6C80.3869 55.56 78.9269 53.52 77.4569 51.47C64.0369 51.18 47.9469 51.92 30.0669 54.99C19.3769 56.83 9.69692 59.22 1.12692 61.79H1.13693Z" fill="#F9F125"/>
<path id="Vector_15" d="M313.297 85.02C298.227 86.43 283.157 87.84 268.087 89.25C255.357 82.32 242.617 75.38 229.887 68.44C234.697 66.04 252.117 58.08 274.527 62.47C297.157 66.91 309.917 81.02 313.297 85.02Z" fill="#D02B26"/>
<path id="Vector_16" d="M240.367 43.62C236.877 51.89 233.387 60.17 229.887 68.44C236.467 66.84 243.057 65.23 249.637 63.63C260.657 63.92 271.667 64.2 282.687 64.49C292.867 71.45 303.037 78.4 313.217 85.36C314.757 78.76 316.307 72.15 317.857 65.55C317.197 63.16 316.547 60.77 315.887 58.37C303.357 53.8 287.947 49.33 270.017 46.5C259.297 44.8 249.347 43.95 240.357 43.62H240.367Z" fill="#F9F125"/>
<path id="Vector_17" d="M138.027 1.52002C128.357 31.09 118.687 60.65 109.017 90.22C108.877 90.41 108.827 90.58 108.837 90.76C109.037 92.69 118.767 93.89 138.017 94.36V1.52002H138.027Z" fill="#1D4992"/>
<path id="Vector_18" d="M177.977 2.98999C178.757 33.95 179.547 64.91 180.327 95.87C180.257 96.09 180.267 96.27 180.337 96.43C181.177 98.2 190.797 96.36 209.197 90.94C198.787 61.62 188.387 32.31 177.977 2.99999V2.98999Z" fill="#1D4992"/>
</g>
</g>
</svg>
